<?xml version="1.0" encoding="utf-8"?>
<!-- Generator: Adobe Illustrator 16.0.0, SVG Export Plug-In . SVG Version: 6.00 Build 0)  -->
<!DOCTYPE svg PUBLIC "-//W3C//DTD SVG 1.1//EN" "http://www.w3.org/Graphics/SVG/1.1/DTD/svg11.dtd">
<svg version="1.1" id="Layer_1" xmlns="http://www.w3.org/2000/svg" xmlns:xlink="http://www.w3.org/1999/xlink" x="0px" y="0px"
	 width="1920px" height="1080px" viewBox="0 0 1920 1080" enable-background="new 0 0 1920 1080" xml:space="preserve">
<g>
	<path fill="#231F20" d="M389.033,448.307h27.21v162.729h53.887v27.21h-81.098V448.307z"/>
	<path fill="#231F20" d="M678.214,493.125c0-30.947,23.475-46.418,45.617-46.418c22.142,0,45.617,15.471,45.617,46.418v9.603h-27.21
		v-9.603c0-13.072-8.537-19.208-18.407-19.208c-9.871,0-18.407,6.136-18.407,19.208v100.304c0,13.072,8.536,19.206,18.407,19.206
		c9.87,0,18.407-6.134,18.407-19.206v-35.747h-21.608v-24.009h48.819v59.756c0,30.945-23.475,46.417-45.617,46.417
		c-22.142,0-45.617-15.472-45.617-46.417V493.125z"/>
	<path fill="#231F20" d="M793.462,448.307h40.814c14.939,0,25.877,3.469,35.213,13.339c9.337,9.87,12.272,21.875,12.272,44.549
		c0,16.54-1.334,27.745-7.737,38.148c-7.469,12.271-19.474,19.741-39.481,19.741h-13.872v74.161h-27.209V448.307z M820.671,538.474
		h13.071c22.142,0,22.409-13.071,22.409-32.012c0-17.873,0-32.544-21.342-32.544h-14.139V538.474z"/>
	<path fill="#231F20" d="M902.04,448.307h43.75c32.28,0,48.019,18.94,48.019,55.755c0,21.875-6.136,37.88-23.476,47.483l29.345,86.7
		h-28.811l-25.343-81.097H929.25v81.097h-27.21V448.307z M929.25,533.14h15.473c18.94,0,21.875-10.672,21.875-29.612
		c0-19.207-3.201-29.61-23.209-29.61H929.25V533.14z"/>
	<path fill="#231F20" d="M1015.686,448.307h81.097v25.611h-53.886v55.753h46.95v25.61h-46.95v55.754h53.886v27.21h-81.097V448.307z"
		/>
	<path fill="#231F20" d="M1202.428,502.995h-27.211v-6.136c0-12.539-5.335-22.941-19.207-22.941
		c-14.938,0-18.407,12.004-18.407,24.542c0,14.673,1.334,19.742,15.473,25.343l20.808,8.27c24.009,9.07,28.545,24.276,28.545,52.02
		c0,32.012-11.739,55.754-46.952,55.754c-26.409,0-46.416-19.474-46.416-45.084v-10.138h27.208v8.538
		c0,9.87,5.336,19.473,19.208,19.473c18.407,0,19.741-10.938,19.741-28.275c0-20.275-2.401-23.477-15.74-28.812l-19.473-8.003
		c-23.477-9.603-29.612-25.076-29.612-48.818c0-28.81,15.474-52.019,46.686-52.019c27.21,0,45.351,21.875,45.351,42.949V502.995z"/>
	<path fill="#231F20" d="M1310.738,502.995h-27.211v-6.136c0-12.539-5.336-22.941-19.207-22.941
		c-14.938,0-18.407,12.004-18.407,24.542c0,14.673,1.334,19.742,15.473,25.343l20.808,8.27c24.009,9.07,28.545,24.276,28.545,52.02
		c0,32.012-11.739,55.754-46.952,55.754c-26.409,0-46.416-19.474-46.416-45.084v-10.138h27.208v8.538
		c0,9.87,5.336,19.473,19.208,19.473c18.407,0,19.741-10.938,19.741-28.275c0-20.275-2.401-23.477-15.74-28.812l-19.473-8.003
		c-23.477-9.603-29.612-25.076-29.612-48.818c0-28.81,15.474-52.019,46.686-52.019c27.21,0,45.351,21.875,45.351,42.949V502.995z"/>
</g>
<path fill="#231F20" d="M561.966,642.219c-56.146,0-101.827-45.682-101.827-101.828c0-56.144,45.681-101.824,101.827-101.824
	c56.145,0,101.825,45.681,101.825,101.824C663.791,596.537,618.11,642.219,561.966,642.219z M561.966,466.087
	c-40.969,0-74.305,33.336-74.305,74.304c0,40.971,33.335,74.307,74.305,74.307c40.967,0,74.303-33.336,74.303-74.307
	C636.269,499.423,602.933,466.087,561.966,466.087z"/>
<path fill="#231F20" d="M1429.108,642.219c-56.146,0-101.826-45.682-101.826-101.828c0-56.144,45.681-101.824,101.826-101.824
	c56.144,0,101.824,45.681,101.824,101.824C1530.933,596.537,1485.252,642.219,1429.108,642.219z M1429.108,466.087
	c-40.968,0-74.304,33.336-74.304,74.304c0,40.971,33.336,74.307,74.304,74.307c40.966,0,74.302-33.336,74.302-74.307
	C1503.41,499.423,1470.074,466.087,1429.108,466.087z"/>
<path fill="#127EAD" d="M535.985,540.391c0-14.351,11.618-25.997,25.98-25.997c14.361,0,25.979,11.646,25.979,25.997
	c0,14.353-11.617,25.982-25.979,25.982C547.604,566.373,535.985,554.743,535.985,540.391z"/>
<path fill="#ED8A22" d="M1403.129,540.391c0-14.351,11.618-25.997,25.979-25.997s25.979,11.646,25.979,25.997
	c0,14.353-11.617,25.982-25.979,25.982S1403.129,554.743,1403.129,540.391z"/>
<rect x="637.646" y="418.901" transform="matrix(0.7071 0.7071 -0.7071 0.7071 509.7087 -328.5369)" fill="#231F20" width="27.519" height="64.118"/>
<rect x="1327.288" y="596.4" transform="matrix(0.7071 0.7071 -0.7071 0.7071 837.1381 -764.179)" fill="#231F20" width="27.518" height="64.124"/>
</svg>
